<svg  version="1.0" xmlns="http://www.w3.org/2000/svg"
 width="1182.000000pt" height="1280.000000pt" viewBox="0 0 1182.000000 1280.000000"
 preserveAspectRatio="xMidYMid meet">
<g transform="translate(0.000000,1280.000000) scale(0.100000,-0.100000)"
fill="#000000" stroke="none">
<path d="M5249 12777 c-87 -29 -119 -51 -119 -82 0 -35 35 -55 97 -55 83 0 80
44 57 -640 -10 -305 10 -374 195 -669 80 -127 102 -171 86 -171 -2 0 -27 20
-54 44 -123 109 -249 175 -431 226 -153 42 -246 88 -299 145 l-41 45 6 93 c6
89 6 94 -18 122 -25 28 -26 29 -52 12 -37 -24 -64 -85 -77 -169 -19 -124 18
-186 84 -143 23 15 26 14 68 -20 59 -50 120 -79 273 -132 225 -77 360 -149
462 -245 87 -82 161 -212 152 -267 l-3 -21 -38 20 c-132 71 -252 84 -462 50
-168 -28 -281 -35 -332 -21 l-43 12 0 67 c0 103 -39 142 -89 88 -53 -57 -81
-249 -43 -296 25 -31 60 -21 90 26 19 29 28 35 45 30 68 -20 119 -17 272 14
249 49 401 42 526 -27 92 -49 87 -35 99 -333 12 -304 24 -458 51 -655 50 -366
1 -1010 -111 -1440 -107 -413 -298 -736 -520 -880 -287 -185 -752 -205 -1334
-55 -340 87 -554 172 -751 298 -181 115 -419 252 -616 355 -103 53 -162 91
-200 127 -30 29 -66 58 -81 66 -34 18 -189 200 -269 316 -112 163 -189 363
-189 491 0 43 4 52 40 86 69 66 46 120 -46 106 -53 -8 -172 -65 -201 -97 -31
-34 -37 -63 -16 -83 14 -15 28 -16 85 -11 77 7 66 19 88 -104 25 -136 87 -277
195 -435 36 -53 65 -98 65 -101 0 -15 -46 5 -167 72 -199 110 -305 185 -419
299 -210 207 -339 474 -428 884 l-24 110 24 33 c47 63 25 103 -54 96 -103 -10
-232 -93 -232 -150 0 -45 39 -55 122 -30 49 14 70 16 76 8 5 -6 21 -67 36
-136 85 -378 227 -662 429 -856 111 -107 200 -168 457 -311 107 -59 194 -112
194 -118 -1 -5 -42 -16 -90 -23 -49 -7 -155 -30 -235 -52 -183 -50 -281 -64
-384 -55 -161 13 -263 43 -545 155 -190 76 -376 140 -404 140 -26 0 -46 31
-46 71 0 40 -26 79 -53 79 -27 0 -59 -50 -83 -126 -28 -92 -29 -126 -6 -174
33 -69 95 -43 124 51 9 33 15 39 39 39 47 0 184 -48 399 -140 446 -190 521
-198 910 -100 65 16 124 30 129 30 25 0 7 -20 -44 -49 -68 -39 -152 -121 -278
-273 -130 -157 -214 -239 -286 -276 -71 -38 -94 -39 -158 -8 -73 37 -114 42
-143 17 l-25 -20 20 -38 c40 -74 201 -159 263 -137 24 9 27 15 27 52 0 41 2
44 55 73 71 38 109 76 234 229 217 265 387 383 571 397 114 9 117 4 46 -74
-66 -74 -134 -193 -150 -264 -5 -24 -17 -100 -26 -169 -19 -150 -46 -248 -81
-289 l-25 -30 -50 19 c-103 41 -169 17 -135 -49 44 -84 240 -173 284 -129 18
18 14 50 -8 78 -25 32 -25 32 11 106 24 49 35 91 46 176 40 303 113 470 246
562 29 20 57 36 63 36 6 0 62 -36 125 -81 249 -176 491 -316 770 -445 160 -73
202 -99 414 -258 193 -144 340 -271 495 -426 229 -229 381 -431 486 -645 231
-476 167 -846 -215 -1226 -200 -199 -579 -464 -818 -573 -280 -128 -440 -216
-666 -369 -124 -84 -152 -99 -176 -94 -18 4 -37 0 -52 -11 -21 -14 -51 -17
-219 -16 -294 1 -484 44 -650 146 l-80 49 0 47 c0 61 -18 96 -52 100 -49 6
-105 -100 -115 -218 -5 -55 -2 -69 14 -89 29 -36 64 -23 102 38 l30 50 118
-60 c135 -69 254 -102 432 -122 63 -7 116 -17 118 -23 4 -11 -226 -105 -363
-147 -154 -49 -239 -62 -394 -61 -261 0 -502 69 -814 232 l-129 67 -12 49
c-19 74 -41 82 -90 33 -60 -60 -96 -233 -59 -285 8 -12 23 -22 34 -22 23 0 64
48 89 105 11 25 24 45 29 45 5 0 47 -20 93 -44 190 -101 449 -198 624 -232
112 -22 371 -25 460 -5 117 26 232 63 412 133 101 39 186 68 189 65 3 -3 -11
-33 -30 -67 -20 -35 -72 -138 -115 -231 -89 -190 -142 -271 -233 -354 -93 -84
-199 -151 -438 -275 -118 -62 -252 -136 -297 -166 -44 -30 -86 -54 -92 -54 -5
0 -27 11 -47 25 -46 31 -69 32 -89 2 -25 -39 3 -104 84 -190 110 -118 204 -72
125 61 -9 17 -14 37 -11 46 11 27 161 118 381 230 406 208 455 253 625 576 38
74 77 144 86 155 15 19 16 15 8 -50 -18 -158 -9 -278 37 -464 36 -151 41 -186
38 -260 -5 -115 -18 -139 -96 -176 -71 -34 -122 -78 -122 -106 0 -10 11 -26
25 -35 36 -24 119 -11 205 33 102 50 127 103 64 132 -23 10 -26 16 -20 44 19
88 17 138 -14 322 -43 261 -51 449 -21 564 21 85 50 144 97 200 39 46 50 40
58 -31 15 -144 50 -212 205 -398 120 -144 200 -272 188 -304 -3 -8 -22 -22
-41 -31 -51 -24 -86 -60 -86 -88 0 -38 23 -50 87 -45 116 10 233 76 233 131 0
32 -12 40 -70 47 -44 5 -44 6 -67 66 -18 47 -47 88 -130 180 -193 217 -248
323 -248 484 l0 95 45 25 c25 14 61 37 80 51 19 15 221 133 447 264 450 257
526 292 828 380 287 83 524 123 785 132 809 28 1271 -307 1505 -1090 39 -131
92 -397 104 -528 13 -139 30 -471 38 -754 4 -160 2 -221 -8 -255 -7 -25 -12
-61 -10 -81 3 -44 -62 -248 -122 -380 -82 -181 -210 -348 -325 -424 l-42 -28
-54 17 c-67 21 -96 11 -96 -35 0 -56 126 -160 223 -183 73 -17 90 48 31 114
l-36 40 95 93 c110 107 187 219 257 375 26 58 52 108 57 109 27 9 33 -468 8
-609 -48 -277 -201 -535 -489 -826 l-152 -153 -57 7 c-53 6 -57 5 -68 -18 -22
-50 46 -127 168 -187 72 -36 84 -37 106 -13 28 31 20 60 -33 116 -28 29 -50
56 -50 60 0 3 46 50 102 104 275 263 453 531 517 774 36 138 44 263 37 530 -4
154 -3 249 3 252 5 4 20 -8 32 -26 13 -18 100 -112 194 -208 270 -276 307
-358 381 -839 19 -125 46 -275 61 -335 l27 -108 -42 -35 c-32 -26 -42 -42 -42
-64 0 -41 36 -54 109 -40 114 23 211 85 211 135 0 36 -30 48 -108 44 l-67 -3
-22 85 c-13 47 -32 150 -43 230 -41 290 -52 357 -76 447 -47 181 -87 244 -276
440 -135 140 -149 164 -70 124 65 -33 172 -60 382 -95 212 -36 319 -66 386
-108 54 -35 60 -45 68 -113 4 -33 14 -76 24 -95 14 -28 23 -35 47 -35 49 0 67
47 63 172 -3 85 -6 106 -24 130 -28 37 -50 40 -81 12 l-24 -24 -40 23 c-68 39
-118 52 -292 78 -256 36 -401 78 -517 149 -96 58 -221 208 -194 235 6 6 25 5
54 -4 138 -42 247 -29 452 54 203 82 307 106 345 82 7 -4 17 -32 23 -62 14
-73 34 -102 68 -98 43 5 66 64 65 163 -1 96 -23 162 -59 171 -31 8 -43 -1 -65
-51 l-19 -42 -77 -5 c-65 -4 -101 -14 -218 -62 -183 -75 -267 -96 -376 -96
-93 0 -206 27 -229 55 -17 21 -20 56 -30 370 -10 294 -24 515 -42 640 -19 133
-15 831 5 999 53 434 152 688 336 859 110 101 233 156 414 183 142 22 507 14
702 -15 464 -69 1010 -213 1233 -325 121 -61 306 -139 427 -182 58 -20 97 -42
143 -81 35 -29 69 -53 76 -53 7 0 74 -62 147 -138 215 -221 322 -397 364 -597
l16 -77 -41 -44 c-41 -45 -49 -71 -28 -92 53 -53 298 71 298 151 0 47 -33 57
-115 35 -24 -7 -47 -9 -50 -6 -3 3 -15 43 -26 89 -35 146 -147 350 -265 482
-70 77 -47 74 162 -19 241 -106 340 -170 474 -304 158 -157 255 -309 349 -548
46 -116 111 -323 111 -354 0 -11 -11 -33 -25 -50 -31 -37 -32 -63 -1 -83 30
-20 82 -8 169 37 109 58 150 139 84 163 -22 7 -42 5 -90 -12 -34 -12 -64 -20
-68 -17 -4 2 -17 37 -28 76 -159 542 -395 867 -765 1056 -39 19 -147 70 -241
112 -94 43 -170 83 -170 90 0 8 25 18 65 27 36 7 139 37 230 67 214 70 262 80
400 79 143 -1 255 -23 513 -103 220 -67 324 -95 393 -106 69 -9 80 -18 88 -65
10 -62 22 -79 56 -79 39 0 64 39 80 126 21 111 -5 214 -53 214 -22 0 -54 -42
-68 -89 -7 -23 -19 -45 -26 -48 -26 -10 -137 19 -393 103 -494 161 -540 164
-873 58 -92 -30 -174 -54 -182 -54 -26 0 -16 14 29 43 64 40 136 122 259 295
127 179 203 263 271 303 61 34 75 35 144 9 130 -50 199 0 115 82 -47 45 -141
90 -204 96 -39 4 -49 1 -62 -18 -12 -17 -13 -28 -5 -53 10 -27 9 -32 -12 -46
-83 -55 -123 -99 -220 -241 -210 -307 -381 -442 -592 -466 -77 -9 -85 9 -30
71 50 57 109 168 122 231 5 27 16 119 25 204 20 209 53 330 90 330 8 0 40 -7
71 -15 46 -12 62 -12 83 -2 62 29 21 96 -92 152 -95 46 -144 53 -177 27 l-25
-20 19 -36 c11 -20 22 -36 27 -36 17 0 17 -32 -1 -62 -29 -52 -39 -103 -49
-268 -12 -176 -35 -283 -83 -372 -36 -67 -112 -158 -133 -158 -8 0 -88 30
-180 66 -179 70 -580 214 -599 214 -7 0 -71 35 -142 78 -490 294 -785 648
-894 1070 -31 120 -41 214 -41 372 1 466 200 928 610 1414 137 162 241 265
340 333 161 111 354 259 517 397 86 72 166 139 178 149 13 10 38 20 57 21 19
2 45 9 58 16 39 20 440 8 556 -18 116 -25 238 -74 317 -126 62 -40 63 -42 69
-96 11 -94 33 -116 79 -82 73 55 119 253 70 302 -11 11 -23 20 -28 20 -18 0
-54 -34 -72 -71 -11 -21 -25 -39 -30 -39 -5 0 -51 22 -102 49 -146 78 -275
113 -511 137 -35 3 -57 10 -55 16 6 17 312 134 443 170 114 30 129 32 305 32
158 1 200 -2 288 -22 156 -35 288 -84 488 -181 l181 -88 6 -42 c13 -104 83
-95 129 15 25 59 48 140 48 167 0 34 -36 77 -66 77 -26 0 -64 -48 -85 -107 -6
-18 -16 -33 -23 -33 -6 0 -72 31 -146 68 -426 215 -762 273 -1097 192 -103
-25 -169 -47 -361 -121 -84 -32 -159 -59 -167 -59 -22 0 -19 14 16 70 17 28
66 126 109 219 89 194 132 260 221 349 89 88 217 171 475 304 121 63 251 136
289 161 39 26 75 47 80 47 6 0 26 -11 45 -25 62 -46 119 -26 106 37 -14 70
-125 200 -184 215 -57 14 -77 -39 -42 -113 12 -24 19 -51 16 -59 -10 -26 -164
-119 -361 -218 -410 -207 -469 -261 -645 -595 -73 -138 -108 -180 -92 -109 4
17 7 100 7 182 -1 141 -3 159 -40 300 -45 177 -51 280 -21 358 17 44 24 51 80
77 75 34 116 71 116 104 0 49 -65 59 -172 26 -73 -22 -143 -68 -150 -98 -7
-24 17 -62 37 -62 19 0 24 -21 12 -50 -18 -47 -11 -209 17 -370 50 -289 45
-469 -18 -607 -30 -64 -82 -133 -101 -133 -8 0 -16 25 -23 73 -23 151 -51 204
-209 390 -129 152 -195 262 -180 301 3 8 28 26 56 41 170 93 39 175 -144 91
-125 -57 -141 -131 -33 -145 39 -6 42 -8 58 -58 22 -69 50 -110 149 -218 97
-106 162 -200 198 -287 21 -50 27 -84 31 -166 l4 -102 -38 -16 c-22 -9 -57
-33 -79 -53 -22 -21 -71 -60 -110 -86 -132 -92 -322 -245 -469 -377 -193 -175
-212 -189 -368 -283 -366 -220 -720 -369 -1011 -427 -155 -30 -376 -30 -492 1
-504 134 -933 757 -1159 1682 -60 247 -74 347 -81 569 -5 182 -21 457 -41 710
-6 72 -4 88 10 99 9 7 16 28 16 45 0 20 21 67 58 131 166 288 306 443 492 544
86 47 100 49 146 20 45 -28 98 -23 102 10 6 38 -6 66 -48 119 -90 114 -209
153 -210 68 0 -10 12 -41 28 -68 18 -33 23 -52 15 -55 -49 -18 -199 -121 -264
-181 -85 -79 -201 -226 -269 -342 -67 -112 -86 -76 -50 98 103 508 434 981
914 1306 53 36 103 66 110 66 7 0 30 -7 50 -15 68 -28 96 15 60 90 -19 40
-107 131 -147 152 -16 8 -43 13 -60 11 -28 -3 -32 -7 -35 -37 -3 -25 5 -47 32
-87 20 -29 36 -57 36 -61 0 -5 -28 -26 -62 -48 -245 -157 -519 -429 -674 -665
-124 -190 -200 -354 -258 -557 -19 -65 -38 -119 -44 -121 -12 -4 -188 261
-232 349 -43 83 -77 211 -91 335 -10 86 -10 165 1 380 7 150 9 314 5 367 l-7
96 46 22 c76 35 84 72 24 109 -42 26 -95 25 -179 -3z m134 -52 c1 -5 -6 -11
-15 -13 -11 -2 -18 3 -18 13 0 17 30 18 33 0z m-108 -16 c0 -9 -13 -15 -32
-17 -38 -4 -44 14 -10 28 28 11 42 7 42 -11z m1508 -113 c34 -31 34 -46 2 -46
-17 0 -32 11 -49 37 -41 60 -14 66 47 9z m-2086 -850 c-4 -9 -11 -16 -17 -16
-11 0 -14 33 -3 44 11 10 26 -11 20 -28z m1714 -147 c30 -21 37 -43 17 -55
-13 -8 -58 39 -58 62 0 19 7 18 41 -7z m-1701 -613 c0 -27 -15 -42 -25 -26 -8
13 3 50 16 50 5 0 9 -11 9 -24z m-25 -136 c0 -7 -6 -15 -12 -17 -8 -3 -13 4
-13 17 0 13 5 20 13 18 6 -3 12 -11 12 -18z m6385 -605 c7 -8 9 -22 6 -31 -6
-15 -8 -15 -26 1 -11 10 -20 24 -20 32 0 18 25 17 40 -2z m-1100 -9 c0 -18
-31 -29 -44 -16 -8 8 -7 14 4 20 22 14 40 12 40 -4z m-140 -45 c0 -12 -20 -25
-27 -18 -7 7 6 27 18 27 5 0 9 -4 9 -9z m1320 -57 c0 -16 -16 -19 -25 -4 -8
13 4 32 16 25 5 -4 9 -13 9 -21z m-10410 -259 c0 -20 -40 -45 -85 -52 -49 -8
-44 13 11 44 45 26 74 29 74 8z m8580 -45 c0 -16 -41 -33 -52 -22 -6 6 -7 15
-4 21 9 14 56 15 56 1z m-135 -40 c3 -6 -1 -13 -10 -16 -19 -8 -30 0 -20 15 8
14 22 14 30 1z m-3375 -492 c62 -240 141 -479 217 -656 207 -485 481 -824 795
-983 339 -171 806 -110 1388 181 85 43 184 94 218 114 35 20 66 36 68 36 15 0
-4 -34 -47 -85 -307 -362 -508 -743 -589 -1120 -27 -125 -38 -409 -21 -539 56
-420 297 -801 693 -1099 119 -89 138 -107 118 -107 -6 0 -120 27 -253 60 -461
114 -671 144 -1017 144 -278 1 -350 -7 -482 -54 -113 -39 -183 -85 -278 -180
-174 -174 -271 -420 -319 -810 -11 -89 -31 -397 -31 -488 0 -81 -18 -61 -56
65 -221 729 -653 1074 -1380 1100 -299 11 -684 -45 -1004 -146 -36 -12 -68
-21 -72 -21 -25 0 6 29 125 118 363 273 546 493 632 762 36 113 45 285 21 412
-83 441 -414 891 -1001 1360 -82 66 -151 124 -153 129 -6 15 21 10 114 -21 49
-17 168 -50 264 -74 529 -133 971 -126 1264 20 100 50 142 82 229 173 273 286
438 752 502 1415 8 88 15 185 15 216 0 68 9 120 21 120 4 0 13 -19 19 -42z
m-4240 -104 c0 -19 -69 -49 -82 -36 -12 12 37 52 63 52 11 0 19 -7 19 -16z
m10190 -286 c0 -34 -20 -98 -30 -98 -22 0 -27 34 -13 77 16 45 43 59 43 21z
m-1060 -227 c0 -39 -9 -61 -25 -61 -23 0 -26 18 -11 55 18 43 36 46 36 6z
m-10590 -101 c0 -11 -7 -20 -15 -20 -17 0 -18 2 -9 24 9 23 24 20 24 -4z m-14
-104 c6 -17 -12 -56 -26 -56 -11 0 -14 53 -3 63 11 11 23 8 29 -7z m713 -855
c8 -5 11 -16 8 -25 -5 -14 -11 -15 -27 -6 -11 6 -20 17 -20 25 0 17 18 19 39
6z m116 -81 c3 -5 -3 -10 -14 -10 -12 0 -21 5 -21 10 0 6 6 10 14 10 8 0 18
-4 21 -10z m624 -166 c2 -2 1 -10 -3 -19 -4 -13 -10 -14 -26 -5 -29 15 -27 43
3 34 12 -3 24 -8 26 -10z m101 -69 c10 -13 9 -15 -9 -15 -12 0 -21 6 -21 15 0
8 4 15 9 15 5 0 14 -7 21 -15z m8430 -1751 c0 -9 -7 -14 -17 -12 -25 5 -28 28
-4 28 12 0 21 -6 21 -16z m104 -40 c17 -7 22 -34 7 -34 -21 0 -41 13 -41 26 0
15 10 17 34 8z m636 -144 c0 -5 -9 -10 -20 -10 -11 0 -20 5 -20 10 0 6 9 10
20 10 11 0 20 -4 20 -10z m119 -54 c14 -17 0 -29 -23 -20 -17 7 -20 16 -9 27
10 11 19 8 32 -7z m777 -811 c-3 -9 -12 -15 -19 -13 -17 6 -21 36 -6 55 12 13
14 13 22 -5 5 -12 7 -28 3 -37z m-16 -105 c0 -11 -4 -20 -9 -20 -14 0 -23 18
-16 30 10 17 25 11 25 -10z m-10286 -176 c7 -19 -13 -66 -31 -72 -16 -5 -17
41 -3 69 13 23 26 24 34 3z m-1051 -195 c7 -11 3 -30 -11 -62 -28 -64 -47 -62
-38 3 11 81 24 98 49 59z m9997 -318 c0 -13 -55 -51 -74 -51 -23 0 -20 26 6
44 25 17 68 21 68 7z m891 -609 c-5 -9 -28 -28 -50 -40 -35 -20 -42 -21 -47
-8 -8 21 3 36 40 52 46 20 69 18 57 -4z m-8331 -16 c0 -17 -27 -29 -35 -16 -4
6 -3 15 0 20 9 15 35 12 35 -4z m-117 -32 c11 -11 -5 -34 -23 -34 -27 0 -34
17 -13 29 21 12 28 13 36 5z m-1855 -338 c3 -12 -1 -17 -10 -14 -7 3 -15 13
-16 22 -3 12 1 17 10 14 7 -3 15 -13 16 -22z m1322 -36 c0 -5 -5 -10 -11 -10
-5 0 -7 5 -4 10 3 6 8 10 11 10 2 0 4 -4 4 -10z m-1236 -52 c5 -9 7 -20 3 -25
-11 -10 -41 11 -45 31 -5 23 26 18 42 -6z m1116 8 c0 -16 -37 -28 -46 -15 -8
14 5 29 27 29 10 0 19 -6 19 -14z m5250 -407 c0 -20 -15 -26 -25 -9 -9 15 3
43 15 35 5 -3 10 -15 10 -26z m-2 -128 c3 -16 -1 -22 -10 -19 -7 3 -15 15 -16
27 -3 16 1 22 10 19 7 -3 15 -15 16 -27z m162 -607 c0 -8 -4 -12 -10 -9 -5 3
-10 10 -10 16 0 5 5 9 10 9 6 0 10 -7 10 -16z m8 -141 c-5 -25 -28 -28 -28 -4
0 12 6 21 16 21 9 0 14 -7 12 -17z m-1712 -166 c38 -33 24 -51 -21 -30 -33 16
-43 32 -28 46 11 11 21 8 49 -16z m1359 -893 c-21 -16 -37 -14 -43 4 -5 16 40
33 53 20 7 -6 3 -14 -10 -24z m-115 -29 c0 -9 -9 -15 -21 -15 -18 0 -19 2 -9
15 7 8 16 15 21 15 5 0 9 -7 9 -15z m-1382 -149 c20 -19 34 -38 30 -42 -15
-14 -118 44 -118 67 0 22 53 7 88 -25z"/>
<path d="M5945 6814 c-321 -32 -533 -96 -640 -195 -58 -54 -75 -86 -75 -144 0
-55 10 -77 59 -128 198 -209 900 -281 1335 -136 122 40 197 82 250 139 209
224 -149 448 -740 464 -82 2 -167 2 -189 0z"/>
</g>
</svg>
